<!-- Generator: Adobe Illustrator 27.3.1, SVG Export Plug-In . SVG Version: 6.00 Build 0)  -->
<svg version="1.1" id="Layer_1" xmlns="http://www.w3.org/2000/svg"
  xmlns:xlink="http://www.w3.org/1999/xlink" x="0px" y="0px"
  viewBox="0 0 47 40" style="enable-background:new 0 0 47 40;" xml:space="preserve">

<g>
	<g>
		<linearGradient id="SVGID_1_" gradientUnits="userSpaceOnUse" x1="10.3314" y1="15.2772" x2="16.3949" y2="10.8812">
			<stop  offset="0" style="stop-color:#00D4FF"/>
			<stop  offset="1" style="stop-color:#00FFDD"/>
		</linearGradient>
		<path class="st0" d="M31.2,3.7c-0.8-1.2-2.4-1.8-3.8-1.4l-6.3,1.6l2.6,1.3c0.4,0.2,0.9,0.3,1.3,0.1L31.2,3.7z"/>
		
			<linearGradient id="SVGID_00000090988012720294496900000012932009328420448692_" gradientUnits="userSpaceOnUse" x1="15.1088" y1="21.8667" x2="21.1723" y2="17.4706">
			<stop  offset="0" style="stop-color:#00D4FF"/>
			<stop  offset="1" style="stop-color:#00FFDD"/>
		</linearGradient>
		<path style="fill:url(#SVGID_00000090988012720294496900000012932009328420448692_);" d="M18.9,15.8c-0.9-0.4-1.8-0.6-2.4-0.2
			c-0.9,0.5-1.7,1.4-2.1,2.3l-5,10.5l1.2,2.2l5.1-10c0.7-1.4,2-2.6,3.6-3.1l1.8-0.6L18.9,15.8z"/>
		
			<linearGradient id="SVGID_00000124872174003305691230000012747377068002188728_" gradientUnits="userSpaceOnUse" x1="13.625" y1="19.82" x2="19.6885" y2="15.424">
			<stop  offset="0" style="stop-color:#00D4FF"/>
			<stop  offset="1" style="stop-color:#00FFDD"/>
		</linearGradient>
		<path style="fill:url(#SVGID_00000124872174003305691230000012747377068002188728_);" d="M35.2,9.4L25,12.7
			c-0.4,0.1-0.9,0.1-1.3-0.1l-5.3-2.5C17.9,9.9,17.5,9.8,17,10l-1.2,0.4c-2,0.6-3.7,2.1-4.5,4l-0.8,2c-0.2,0.4-0.6,0.7-1,0.6
			l-2.3-0.1c-0.4,0-0.8,0.2-1,0.7l-0.4,1.1c-0.5,1.3-0.3,2.8,0.3,4.1l1.2-3.2c0.2-0.4,0.6-0.7,1-0.7l2.6,0.1c0.4,0,0.8-0.2,1-0.6
			l1-2.3c0.7-1.5,1.9-2.6,3.5-3.1l1.2-0.4l6.1,2.9c0.4,0.2,0.9,0.2,1.3,0.1l11.5-3.9L35.2,9.4z"/>
		
			<linearGradient id="SVGID_00000011027606273493445480000005628691064653956251_" gradientUnits="userSpaceOnUse" x1="10.7159" y1="15.8075" x2="16.7795" y2="11.4115">
			<stop  offset="0" style="stop-color:#00D4FF"/>
			<stop  offset="1" style="stop-color:#00FFDD"/>
		</linearGradient>
		<path style="fill:url(#SVGID_00000011027606273493445480000005628691064653956251_);" d="M7.1,15.2l1.2,0.1c0.4,0,0.8-0.2,1-0.6
			l1.1-3c0.6-1.5,1.8-2.6,3.4-3.1l3.5-1c0.5-0.1,0.9-0.1,1.4,0.1l5.2,2.5c0.4,0.2,0.9,0.2,1.3,0.1l8.7-2.7l-1.4-2.1l-7.1,2.1
			c-0.4,0.1-0.9,0.1-1.4-0.1l-5-2.4c-0.4-0.2-0.9-0.3-1.4-0.1L13.2,6c-2,0.5-3.6,2-4.3,4L7.1,15.2z"/>
		
			<linearGradient id="SVGID_00000144316639996409861520000000259991510242342549_" gradientUnits="userSpaceOnUse" x1="13.7002" y1="19.9238" x2="19.7637" y2="15.5278">
			<stop  offset="0" style="stop-color:#00D4FF"/>
			<stop  offset="1" style="stop-color:#00FFDD"/>
		</linearGradient>
		<path style="fill:url(#SVGID_00000144316639996409861520000000259991510242342549_);" d="M9.6,20.5c-0.4,0-0.8,0.2-1,0.6l-1.4,3.4
			l1.1,2.1l2.7-6L9.6,20.5z"/>
	</g>
	<g>
		
			<linearGradient id="SVGID_00000132789897364725835940000013053144959653356170_" gradientUnits="userSpaceOnUse" x1="22.3455" y1="31.8481" x2="28.409" y2="27.4521">
			<stop  offset="0" style="stop-color:#00D4FF"/>
			<stop  offset="1" style="stop-color:#00FFDD"/>
		</linearGradient>
		<path style="fill:url(#SVGID_00000132789897364725835940000013053144959653356170_);" d="M41,17.8l-0.1-0.2L37,19.2
			c-0.4,0.2-0.7,0.5-0.8,1l-0.5,2.6l4.3-1.8C41.3,20.5,41.8,18.9,41,17.8z"/>
		
			<linearGradient id="SVGID_00000046336187775492010280000009889517644437670025_" gradientUnits="userSpaceOnUse" x1="20.0947" y1="28.7436" x2="26.1582" y2="24.3476">
			<stop  offset="0" style="stop-color:#00D4FF"/>
			<stop  offset="1" style="stop-color:#00FFDD"/>
		</linearGradient>
		<path style="fill:url(#SVGID_00000046336187775492010280000009889517644437670025_);" d="M38,13.5l-5.5,2c-0.4,0.2-0.7,0.5-0.8,1
			L30.7,21c-0.1,0.4-0.4,0.8-0.8,1l-6.3,2.5c-1.6,0.6-3,1.8-4,3.2l-0.7,1.1c-0.3,0.4-0.3,0.9-0.3,1.3l0.6,3l2-2.9
			c1-1.4,2.3-2.4,3.8-3l7.5-3.1c0.4-0.2,0.7-0.5,0.8-1l0.9-4.7c0.1-0.4,0.4-0.8,0.8-1l4.6-1.7L38,13.5z"/>
		
			<linearGradient id="SVGID_00000118392551562731337190000010776197012766832256_" gradientUnits="userSpaceOnUse" x1="19.2562" y1="27.5871" x2="25.3197" y2="23.191">
			<stop  offset="0" style="stop-color:#00D4FF"/>
			<stop  offset="1" style="stop-color:#00FFDD"/>
		</linearGradient>
		<path style="fill:url(#SVGID_00000118392551562731337190000010776197012766832256_);" d="M11.5,32.5l1.2,2.2l0.5-0.8
			c0.2-0.4,0.3-0.9,0.3-1.3L13,29.7L11.5,32.5z"/>
		
			<linearGradient id="SVGID_00000007413019876255824700000014739355874592810647_" gradientUnits="userSpaceOnUse" x1="19.2904" y1="27.6344" x2="25.3539" y2="23.2383">
			<stop  offset="0" style="stop-color:#00D4FF"/>
			<stop  offset="1" style="stop-color:#00FFDD"/>
		</linearGradient>
		<path style="fill:url(#SVGID_00000007413019876255824700000014739355874592810647_);" d="M18.4,25.3c0.8-1.4,2.2-2.5,3.7-3.1
			l5.8-2.2c0.4-0.2,0.7-0.5,0.8-1l0.5-2.5l-8.2,2.9c-1.8,0.6-3.3,1.9-4.2,3.6l-2.1,3.8c-0.2,0.4-0.3,0.9-0.2,1.3l0.9,5.2
			c0.1,0.5,0,0.9-0.3,1.3l-1.2,1.9c0.6,1.1,2.1,1.1,2.7,0.2l0.9-1.3c0.3-0.4,0.4-0.9,0.3-1.3l-1-5.3c-0.1-0.5,0-0.9,0.2-1.3
			L18.4,25.3z"/>
	</g>
	<g>
		
			<linearGradient id="SVGID_00000099625841365513272540000015692227296708527535_" gradientUnits="userSpaceOnUse" x1="17.2255" y1="33.6997" x2="29.9212" y2="33.6997">
			<stop  offset="0" style="stop-color:#00FFDD"/>
			<stop  offset="1" style="stop-color:#00D4FF"/>
		</linearGradient>
		<path style="fill:url(#SVGID_00000099625841365513272540000015692227296708527535_);" d="M26,32.1c0.3-0.3,0.7-0.6,1.2-0.8
			l2.7-1.2l-0.5-0.3c-0.4-0.2-0.9-0.3-1.3-0.1l-1.2,0.5c-0.4,0.2-0.8,0.5-1.2,0.8l-3.1,2.9c-0.3,0.3-0.7,0.6-1.2,0.8l-1.2,0.5
			L18.6,36l-1.4,1.8l4.8-2.1c0.4-0.2,0.8-0.5,1.2-0.8L26,32.1z"/>
		
			<linearGradient id="SVGID_00000122680071534610542860000010128232001743978631_" gradientUnits="userSpaceOnUse" x1="19.6702" y1="33.0924" x2="23.9067" y2="33.0924">
			<stop  offset="0" style="stop-color:#00FFDD"/>
			<stop  offset="1" style="stop-color:#00D4FF"/>
		</linearGradient>
		<path style="fill:url(#SVGID_00000122680071534610542860000010128232001743978631_);" d="M23.9,31.5l-2.8,1.2l-1.4,1.9l1.5-0.7
			c0.4-0.2,0.8-0.5,1.2-0.8L23.9,31.5z"/>
		
			<linearGradient id="SVGID_00000011008694021507561960000000489167566724778392_" gradientUnits="userSpaceOnUse" x1="24.6542" y1="31.4308" x2="35.6515" y2="31.4308">
			<stop  offset="0" style="stop-color:#00FFDD"/>
			<stop  offset="1" style="stop-color:#00D4FF"/>
		</linearGradient>
		<path style="fill:url(#SVGID_00000011008694021507561960000000489167566724778392_);" d="M24.7,34.5l6.7-3c1.6-0.7,3-1.7,4.2-3
			l0.1-0.1l-7.8,3.5c-0.4,0.2-0.8,0.5-1.2,0.8L24.7,34.5z"/>
		
			<linearGradient id="SVGID_00000119086875587158954220000000668204033099595438_" gradientUnits="userSpaceOnUse" x1="22.0714" y1="28.4338" x2="37.5026" y2="28.4338">
			<stop  offset="0" style="stop-color:#00FFDD"/>
			<stop  offset="1" style="stop-color:#00D4FF"/>
		</linearGradient>
		<path style="fill:url(#SVGID_00000119086875587158954220000000668204033099595438_);" d="M37.5,25.5l-5.2,2.3
			c-0.4,0.2-0.9,0.1-1.3-0.1l-0.9-0.6c-0.4-0.2-0.9-0.3-1.3-0.1l-3,1.3c-1.5,0.7-2.9,1.7-3.8,3.1l6.4-2.8c0.4-0.2,0.9-0.1,1.3,0.1
			l0.8,0.5c0.4,0.2,0.9,0.3,1.3,0.1l3.9-1.7c0.4-0.2,0.8-0.5,1.1-0.9L37.5,25.5z"/>
		
			<linearGradient id="SVGID_00000177476204731012467200000009386178355928171411_" gradientUnits="userSpaceOnUse" x1="30.9061" y1="24.6587" x2="39.4272" y2="24.6587">
			<stop  offset="0" style="stop-color:#00FFDD"/>
			<stop  offset="1" style="stop-color:#00D4FF"/>
		</linearGradient>
		<path style="fill:url(#SVGID_00000177476204731012467200000009386178355928171411_);" d="M39.4,22.5l-8.5,3.6l0.6,0.4
			c0.4,0.3,0.8,0.3,1.3,0.1l4.8-2.1c0.4-0.2,0.8-0.5,1.1-0.9L39.4,22.5z"/>
	</g>
</g>
</svg>